<svg height="512" width="512" xmlns="http://www.w3.org/2000/svg">
    <!-- Gradient Definition -->
    <defs>
        <linearGradient id="gradient1" x1="0" x2="1" y1="0" y2="1">
            <stop offset="0%" stop-color="#26abff" />
            <stop offset="100%" stop-color="#f459c9" />
        </linearGradient>
    </defs>

    <!-- Path with Gradient Fill -->
    <path fill="url(#gradient1)"
        d="m220.9478149 311.3717346c-23.3077545-3.6538696-45.6543884-5.495697-65.90625-5.8072205 20.4134521 4.9222107 40.5994415 10.9995728 60.5596008 18.2228699-7.8586731 19.0202332-13.9293365 37.5322571-18.0436859 54.9019775-31.7519684 10.7259521-70.0746384 17.6116028-118.8477859 17.8994141-19.8695984 22.2207947-32.3454781 45.3023376-47.2727509 72.7070312l-31.436943 14.3382264c8.1816692-14.0120239 29.9151745-53.7584229 61.8371887-97.8059082 78.7636261-122.628418 173.3920136-219.5455322 272.3619385-300.008934-108.0237885 66.4048233-199.1233673 166.0841598-279.5895004 289.2001877 33.8432541-198.8286133 223.6066513-375.9007953 391.9287643-348.8870068-6.08078 23.4782772-10.8680115 43.0055466-18.1876831 66.5790482-28.2769165-1.6224365-78.5726929 12.9795074-78.5726929 12.9795074 32.4489441-2.0860291 57.5671692-1.7716904 74.3477478 1.1423264-2.1540527 6.5036469-4.4144897 13.0402374-6.7678528 19.5898438-63.1479492 3.2015208-137.27182 60.608076-196.4100952 184.9486369zm18.8999482 177.2330017c5.8605804-94.3406677 41.4374542-204.0913696 97.0956268-288.2590027 97.7801819-55.2075958 171.4333801 11.8587189 86.2895813 89.0460815-33.5001526 28.561615-99.6313477 61.765564-150.4315491 65.9228516 61.3009339 130.5408021 193.2535706 163.6400452 239.1985779 88.2485352-65.9378357 18.0787354-146.5755615-11.2440796-202.6908264-73.51297 44.4002075-7.4361877 81.7195129-20.466217 116.9368286-40.792511 156.3597717-96.6446686 39.8149414-266.2718811-95.7857666-145.5831604-88.1767883 74.1146241-171.406189 270.6366883-90.6124725 304.9301758" />
</svg>